<?xml version="1.0" encoding="UTF-8" standalone="no"?>
<!DOCTYPE svg PUBLIC "-//W3C//DTD SVG 1.1//EN"
 "http://www.w3.org/Graphics/SVG/1.1/DTD/svg11.dtd">
<!-- Generated by graphviz version 2.38.0 (20140413.2041)
 -->
<!-- Title: G Pages: 1 -->
<svg width="430pt" height="662pt"
 viewBox="0.00 0.00 430.00 662.00" xmlns="http://www.w3.org/2000/svg" xmlns:xlink="http://www.w3.org/1999/xlink">
<g id="graph0" class="graph" transform="scale(1 1) rotate(0) translate(4 658)">
<title>G</title>
<polygon fill="white" stroke="none" points="-4,4 -4,-658 426,-658 426,4 -4,4"/>
<g id="clust1" class="cluster"><title>cluster_A</title>
<polygon fill="none" stroke="black" stroke-dasharray="1,5" points="8,-8 8,-577 414,-577 414,-8 8,-8"/>
<text text-anchor="middle" x="364.5" y="-561.8" font-family="Times,serif" font-size="14.00">Critical section</text>
</g>
<!-- A0 -->
<g id="node1" class="node"><title>A0</title>
<ellipse fill="none" stroke="black" cx="269" cy="-636" rx="63.0888" ry="18"/>
<text text-anchor="middle" x="269" y="-632.3" font-family="Times,serif" font-size="14.00">Get session ID</text>
</g>
<!-- A1 -->
<g id="node2" class="node"><title>A1</title>
<polygon fill="none" stroke="black" points="269,-546 166.947,-528 269,-510 371.053,-528 269,-546"/>
<text text-anchor="middle" x="269" y="-524.3" font-family="Times,serif" font-size="14.00">cache[ID] exists?</text>
</g>
<!-- A0&#45;&gt;A1 -->
<g id="edge1" class="edge"><title>A0&#45;&gt;A1</title>
<path fill="none" stroke="black" d="M269,-617.969C269,-601.378 269,-575.883 269,-556.431"/>
<polygon fill="black" stroke="black" points="272.5,-556.341 269,-546.341 265.5,-556.341 272.5,-556.341"/>
<text text-anchor="middle" x="276.5" y="-588.8" font-family="Times,serif" font-size="14.00">ID</text>
</g>
<!-- A3 -->
<g id="node3" class="node"><title>A3</title>
<ellipse fill="none" stroke="black" cx="247" cy="-441" rx="61.1893" ry="18"/>
<text text-anchor="middle" x="247" y="-437.3" font-family="Times,serif" font-size="14.00">Get cache[ID]</text>
</g>
<!-- A1&#45;&gt;A3 -->
<g id="edge3" class="edge"><title>A1&#45;&gt;A3</title>
<path fill="none" stroke="black" d="M264.758,-510.611C261.713,-498.848 257.541,-482.727 254.006,-469.067"/>
<polygon fill="black" stroke="black" points="257.349,-468.018 251.455,-459.214 250.573,-469.772 257.349,-468.018"/>
<text text-anchor="middle" x="268.5" y="-480.8" font-family="Times,serif" font-size="14.00">yes</text>
</g>
<!-- B -->
<g id="node6" class="node"><title>B</title>
<ellipse fill="none" stroke="black" cx="335" cy="-107" rx="71.4873" ry="18"/>
<text text-anchor="middle" x="335" y="-103.3" font-family="Times,serif" font-size="14.00">return null object</text>
</g>
<!-- A1&#45;&gt;B -->
<g id="edge2" class="edge"><title>A1&#45;&gt;B</title>
<path fill="none" stroke="black" d="M286.156,-512.705C312.647,-489.397 362.485,-440.322 382,-386 413.556,-298.162 398.501,-267.679 381,-176 378.101,-160.814 378.128,-156.151 370,-143 367.597,-139.112 364.682,-135.329 361.571,-131.775"/>
<polygon fill="black" stroke="black" points="363.997,-129.246 354.571,-124.408 358.922,-134.068 363.997,-129.246"/>
<text text-anchor="middle" x="406" y="-320.8" font-family="Times,serif" font-size="14.00">no</text>
</g>
<!-- A4 -->
<g id="node4" class="node"><title>A4</title>
<polygon fill="none" stroke="black" points="234,-386 95.4142,-368 234,-350 372.586,-368 234,-386"/>
<text text-anchor="middle" x="234" y="-364.3" font-family="Times,serif" font-size="14.00">cache[ID][shape] exists?</text>
</g>
<!-- A3&#45;&gt;A4 -->
<g id="edge4" class="edge"><title>A3&#45;&gt;A4</title>
<path fill="none" stroke="black" d="M243.853,-422.813C242.384,-414.789 240.6,-405.047 238.956,-396.069"/>
<polygon fill="black" stroke="black" points="242.362,-395.235 237.118,-386.029 235.476,-396.496 242.362,-395.235"/>
</g>
<!-- A5 -->
<g id="node5" class="node"><title>A5</title>
<ellipse fill="none" stroke="black" cx="207" cy="-281" rx="87.1846" ry="18"/>
<text text-anchor="middle" x="207" y="-277.3" font-family="Times,serif" font-size="14.00">Get cache[ID][shape]</text>
</g>
<!-- A4&#45;&gt;A5 -->
<g id="edge6" class="edge"><title>A4&#45;&gt;A5</title>
<path fill="none" stroke="black" d="M228.794,-350.611C225.057,-338.848 219.937,-322.727 215.598,-309.067"/>
<polygon fill="black" stroke="black" points="218.831,-307.685 212.468,-299.214 212.16,-309.804 218.831,-307.685"/>
<text text-anchor="middle" x="231.5" y="-320.8" font-family="Times,serif" font-size="14.00">yes</text>
</g>
<!-- A4&#45;&gt;B -->
<g id="edge5" class="edge"><title>A4&#45;&gt;B</title>
<path fill="none" stroke="black" d="M254.988,-352.654C288.373,-328.353 352.136,-275.49 375,-212 384.75,-184.926 369.664,-154.202 355.313,-133.211"/>
<polygon fill="black" stroke="black" points="357.971,-130.912 349.282,-124.849 352.293,-135.007 357.971,-130.912"/>
<text text-anchor="middle" x="373" y="-233.8" font-family="Times,serif" font-size="14.00">no</text>
</g>
<!-- B1 -->
<g id="node7" class="node"><title>B1</title>
<polygon fill="none" stroke="black" points="191,-212 16.2201,-194 191,-176 365.78,-194 191,-212"/>
<text text-anchor="middle" x="191" y="-190.3" font-family="Times,serif" font-size="14.00">cache[ID][shape][name] exists?</text>
</g>
<!-- A5&#45;&gt;B1 -->
<g id="edge7" class="edge"><title>A5&#45;&gt;B1</title>
<path fill="none" stroke="black" d="M203.762,-262.799C201.557,-251.086 198.594,-235.342 196.078,-221.974"/>
<polygon fill="black" stroke="black" points="199.468,-221.065 194.178,-211.885 192.589,-222.36 199.468,-221.065"/>
</g>
<!-- B1&#45;&gt;B -->
<g id="edge9" class="edge"><title>B1&#45;&gt;B</title>
<path fill="none" stroke="black" d="M215.754,-178.388C238.773,-164.801 273.326,-144.405 299.321,-129.061"/>
<polygon fill="black" stroke="black" points="301.293,-131.961 308.126,-123.863 297.735,-125.932 301.293,-131.961"/>
<text text-anchor="middle" x="278" y="-146.8" font-family="Times,serif" font-size="14.00">no</text>
</g>
<!-- B3 -->
<g id="node8" class="node"><title>B3</title>
<ellipse fill="none" stroke="black" cx="133" cy="-107" rx="112.38" ry="18"/>
<text text-anchor="middle" x="133" y="-103.3" font-family="Times,serif" font-size="14.00">Get cache[ID][shape][name]</text>
</g>
<!-- B1&#45;&gt;B3 -->
<g id="edge8" class="edge"><title>B1&#45;&gt;B3</title>
<path fill="none" stroke="black" d="M180.091,-177.012C171.721,-164.746 160.004,-147.574 150.351,-133.429"/>
<polygon fill="black" stroke="black" points="153.184,-131.37 144.657,-125.083 147.402,-135.316 153.184,-131.37"/>
<text text-anchor="middle" x="174.5" y="-146.8" font-family="Times,serif" font-size="14.00">yes</text>
</g>
<!-- B4 -->
<g id="node9" class="node"><title>B4</title>
<ellipse fill="none" stroke="black" cx="170" cy="-34" rx="154.073" ry="18"/>
<text text-anchor="middle" x="170" y="-30.3" font-family="Times,serif" font-size="14.00">return object of cache[ID][shape][name]</text>
</g>
<!-- B3&#45;&gt;B4 -->
<g id="edge10" class="edge"><title>B3&#45;&gt;B4</title>
<path fill="none" stroke="black" d="M141.957,-88.8129C146.32,-80.4407 151.658,-70.1971 156.501,-60.9026"/>
<polygon fill="black" stroke="black" points="159.608,-62.5144 161.126,-52.0288 153.401,-59.2794 159.608,-62.5144"/>
</g>
</g>
</svg>
