<?xml version="1.0" encoding="UTF-8" standalone="no"?>
<!DOCTYPE svg PUBLIC "-//W3C//DTD SVG 1.1//EN"
 "http://www.w3.org/Graphics/SVG/1.1/DTD/svg11.dtd">
<!-- Generated by graphviz version 2.38.0 (20140413.2041)
 -->
<!-- Title: G Pages: 1 -->
<svg width="390pt" height="1114pt"
 viewBox="0.00 0.00 390.00 1114.00" xmlns="http://www.w3.org/2000/svg" xmlns:xlink="http://www.w3.org/1999/xlink">
<g id="graph0" class="graph" transform="scale(1 1) rotate(0) translate(4 1110)">
<title>G</title>
<polygon fill="white" stroke="none" points="-4,4 -4,-1110 386,-1110 386,4 -4,4"/>
<g id="clust1" class="cluster"><title>cluster_A</title>
<polygon fill="none" stroke="black" stroke-dasharray="1,5" points="8,-8 8,-1029 374,-1029 374,-8 8,-8"/>
<text text-anchor="middle" x="324.5" y="-1013.8" font-family="Times,serif" font-size="14.00">Critical section</text>
</g>
<!-- A0 -->
<g id="node1" class="node"><title>A0</title>
<ellipse fill="none" stroke="black" cx="162" cy="-1088" rx="63.0888" ry="18"/>
<text text-anchor="middle" x="162" y="-1084.3" font-family="Times,serif" font-size="14.00">Get session ID</text>
</g>
<!-- A1 -->
<g id="node3" class="node"><title>A1</title>
<polygon fill="none" stroke="black" points="162,-998 59.9471,-980 162,-962 264.053,-980 162,-998"/>
<text text-anchor="middle" x="162" y="-976.3" font-family="Times,serif" font-size="14.00">cache[ID] exists?</text>
</g>
<!-- A0&#45;&gt;A1 -->
<g id="edge1" class="edge"><title>A0&#45;&gt;A1</title>
<path fill="none" stroke="black" d="M162,-1069.97C162,-1053.38 162,-1027.88 162,-1008.43"/>
<polygon fill="black" stroke="black" points="165.5,-1008.34 162,-998.341 158.5,-1008.34 165.5,-1008.34"/>
<text text-anchor="middle" x="169.5" y="-1040.8" font-family="Times,serif" font-size="14.00">ID</text>
</g>
<!-- A -->
<g id="node2" class="node"><title>A</title>
<ellipse fill="none" stroke="black" cx="150" cy="-413" rx="96.6831" ry="18"/>
<text text-anchor="middle" x="150" y="-409.3" font-family="Times,serif" font-size="14.00">Create cache[ID][shape]</text>
</g>
<!-- A5 -->
<g id="node7" class="node"><title>A5</title>
<ellipse fill="none" stroke="black" cx="150" cy="-340" rx="87.1846" ry="18"/>
<text text-anchor="middle" x="150" y="-336.3" font-family="Times,serif" font-size="14.00">Get cache[ID][shape]</text>
</g>
<!-- A&#45;&gt;A5 -->
<g id="edge7" class="edge"><title>A&#45;&gt;A5</title>
<path fill="none" stroke="black" d="M150,-394.813C150,-386.789 150,-377.047 150,-368.069"/>
<polygon fill="black" stroke="black" points="153.5,-368.029 150,-358.029 146.5,-368.029 153.5,-368.029"/>
</g>
<!-- A2 -->
<g id="node4" class="node"><title>A2</title>
<ellipse fill="none" stroke="black" cx="108" cy="-893" rx="71.4873" ry="18"/>
<text text-anchor="middle" x="108" y="-889.3" font-family="Times,serif" font-size="14.00">Create cache[ID]</text>
</g>
<!-- A1&#45;&gt;A2 -->
<g id="edge2" class="edge"><title>A1&#45;&gt;A2</title>
<path fill="none" stroke="black" d="M152.096,-963.41C144.353,-951.222 133.424,-934.019 124.383,-919.788"/>
<polygon fill="black" stroke="black" points="127.084,-917.513 118.768,-910.949 121.176,-921.267 127.084,-917.513"/>
<text text-anchor="middle" x="145" y="-932.8" font-family="Times,serif" font-size="14.00">no</text>
</g>
<!-- A3 -->
<g id="node5" class="node"><title>A3</title>
<ellipse fill="none" stroke="black" cx="159" cy="-820" rx="61.1893" ry="18"/>
<text text-anchor="middle" x="159" y="-816.3" font-family="Times,serif" font-size="14.00">Get cache[ID]</text>
</g>
<!-- A1&#45;&gt;A3 -->
<g id="edge3" class="edge"><title>A1&#45;&gt;A3</title>
<path fill="none" stroke="black" d="M170.725,-963.491C181.049,-943.164 195.899,-906.405 188,-875 185.56,-865.299 181.002,-855.442 176.21,-846.851"/>
<polygon fill="black" stroke="black" points="179.124,-844.903 171.008,-838.093 173.106,-848.478 179.124,-844.903"/>
<text text-anchor="middle" x="199.5" y="-889.3" font-family="Times,serif" font-size="14.00">yes</text>
</g>
<!-- A2&#45;&gt;A3 -->
<g id="edge4" class="edge"><title>A2&#45;&gt;A3</title>
<path fill="none" stroke="black" d="M120.086,-875.174C126.374,-866.42 134.183,-855.549 141.152,-845.847"/>
<polygon fill="black" stroke="black" points="144.009,-847.869 147,-837.705 138.324,-843.785 144.009,-847.869"/>
</g>
<!-- A4 -->
<g id="node6" class="node"><title>A4</title>
<polygon fill="none" stroke="black" points="159,-765 20.4142,-747 159,-729 297.586,-747 159,-765"/>
<text text-anchor="middle" x="159" y="-743.3" font-family="Times,serif" font-size="14.00">cache[ID][shape] exists?</text>
</g>
<!-- A3&#45;&gt;A4 -->
<g id="edge5" class="edge"><title>A3&#45;&gt;A4</title>
<path fill="none" stroke="black" d="M159,-801.813C159,-793.789 159,-784.047 159,-775.069"/>
<polygon fill="black" stroke="black" points="162.5,-775.029 159,-765.029 155.5,-775.029 162.5,-775.029"/>
</g>
<!-- A4&#45;&gt;A5 -->
<g id="edge8" class="edge"><title>A4&#45;&gt;A5</title>
<path fill="none" stroke="black" d="M113.164,-734.831C77.4895,-723.08 34,-700.628 34,-661 34,-661 34,-661 34,-412 34,-384.872 57.364,-367.794 83.1209,-357.208"/>
<polygon fill="black" stroke="black" points="84.5629,-360.405 92.6797,-353.595 82.0881,-353.857 84.5629,-360.405"/>
<text text-anchor="middle" x="43.5" y="-525.8" font-family="Times,serif" font-size="14.00">yes</text>
</g>
<!-- B -->
<g id="node8" class="node"><title>B</title>
<polygon fill="none" stroke="black" points="164,-678 52.5635,-660 164,-642 275.436,-660 164,-678"/>
<text text-anchor="middle" x="164" y="-656.3" font-family="Times,serif" font-size="14.00">Clear cache mode?</text>
</g>
<!-- A4&#45;&gt;B -->
<g id="edge6" class="edge"><title>A4&#45;&gt;B</title>
<path fill="none" stroke="black" d="M160.012,-728.799C160.701,-717.086 161.627,-701.342 162.413,-687.974"/>
<polygon fill="black" stroke="black" points="165.913,-688.074 163.007,-677.885 158.925,-687.663 165.913,-688.074"/>
<text text-anchor="middle" x="168" y="-699.8" font-family="Times,serif" font-size="14.00">no</text>
</g>
<!-- B1 -->
<g id="node9" class="node"><title>B1</title>
<polygon fill="none" stroke="black" points="191,-285 16.2201,-267 191,-249 365.78,-267 191,-285"/>
<text text-anchor="middle" x="191" y="-263.3" font-family="Times,serif" font-size="14.00">cache[ID][shape][name] exists?</text>
</g>
<!-- A5&#45;&gt;B1 -->
<g id="edge14" class="edge"><title>A5&#45;&gt;B1</title>
<path fill="none" stroke="black" d="M159.925,-321.813C164.954,-313.105 171.151,-302.372 176.686,-292.788"/>
<polygon fill="black" stroke="black" points="179.759,-294.466 181.728,-284.056 173.697,-290.965 179.759,-294.466"/>
</g>
<!-- B&#45;&gt;A -->
<g id="edge9" class="edge"><title>B&#45;&gt;A</title>
<path fill="none" stroke="black" d="M139.944,-645.826C121.358,-634.148 97.0088,-615.202 86,-591 73.845,-564.278 93.9104,-484.635 101,-468 105.76,-456.831 113.831,-446.452 122.064,-437.838"/>
<polygon fill="black" stroke="black" points="124.594,-440.259 129.261,-430.747 119.681,-435.272 124.594,-440.259"/>
<text text-anchor="middle" x="94" y="-525.8" font-family="Times,serif" font-size="14.00">no</text>
</g>
<!-- D -->
<g id="node13" class="node"><title>D</title>
<polygon fill="none" stroke="black" points="168,-591 95.273,-573 168,-555 240.727,-573 168,-591"/>
<text text-anchor="middle" x="168" y="-569.3" font-family="Times,serif" font-size="14.00">Cache full?</text>
</g>
<!-- B&#45;&gt;D -->
<g id="edge10" class="edge"><title>B&#45;&gt;D</title>
<path fill="none" stroke="black" d="M164.809,-641.799C165.361,-630.086 166.102,-614.342 166.731,-600.974"/>
<polygon fill="black" stroke="black" points="170.231,-601.039 167.205,-590.885 163.239,-600.71 170.231,-601.039"/>
<text text-anchor="middle" x="175.5" y="-612.8" font-family="Times,serif" font-size="14.00">yes</text>
</g>
<!-- B2 -->
<g id="node10" class="node"><title>B2</title>
<ellipse fill="none" stroke="black" cx="161" cy="-180" rx="122.379" ry="18"/>
<text text-anchor="middle" x="161" y="-176.3" font-family="Times,serif" font-size="14.00">Create cache[ID][shape][name]</text>
</g>
<!-- B1&#45;&gt;B2 -->
<g id="edge15" class="edge"><title>B1&#45;&gt;B2</title>
<path fill="none" stroke="black" d="M185.073,-249.207C180.909,-237.409 175.251,-221.378 170.467,-207.822"/>
<polygon fill="black" stroke="black" points="173.646,-206.314 167.017,-198.049 167.045,-208.644 173.646,-206.314"/>
<text text-anchor="middle" x="184" y="-219.8" font-family="Times,serif" font-size="14.00">no</text>
</g>
<!-- B3 -->
<g id="node11" class="node"><title>B3</title>
<ellipse fill="none" stroke="black" cx="180" cy="-107" rx="112.38" ry="18"/>
<text text-anchor="middle" x="180" y="-103.3" font-family="Times,serif" font-size="14.00">Get cache[ID][shape][name]</text>
</g>
<!-- B1&#45;&gt;B3 -->
<g id="edge17" class="edge"><title>B1&#45;&gt;B3</title>
<path fill="none" stroke="black" d="M222.618,-252.24C260.261,-233.804 315.291,-199.087 292,-162 281.926,-145.959 265.599,-134.57 248.489,-126.529"/>
<polygon fill="black" stroke="black" points="249.506,-123.155 238.938,-122.398 246.727,-129.58 249.506,-123.155"/>
<text text-anchor="middle" x="306.5" y="-176.3" font-family="Times,serif" font-size="14.00">yes</text>
</g>
<!-- B2&#45;&gt;B3 -->
<g id="edge16" class="edge"><title>B2&#45;&gt;B3</title>
<path fill="none" stroke="black" d="M165.599,-161.813C167.77,-153.702 170.41,-143.836 172.834,-134.777"/>
<polygon fill="black" stroke="black" points="176.239,-135.594 175.443,-125.029 169.477,-133.784 176.239,-135.594"/>
</g>
<!-- B4 -->
<g id="node12" class="node"><title>B4</title>
<ellipse fill="none" stroke="black" cx="180" cy="-34" rx="147.574" ry="18"/>
<text text-anchor="middle" x="180" y="-30.3" font-family="Times,serif" font-size="14.00">assign data to cache[ID][shape][name]</text>
</g>
<!-- B3&#45;&gt;B4 -->
<g id="edge18" class="edge"><title>B3&#45;&gt;B4</title>
<path fill="none" stroke="black" d="M180,-88.8129C180,-80.7895 180,-71.0475 180,-62.0691"/>
<polygon fill="black" stroke="black" points="183.5,-62.0288 180,-52.0288 176.5,-62.0289 183.5,-62.0288"/>
</g>
<!-- D&#45;&gt;A -->
<g id="edge11" class="edge"><title>D&#45;&gt;A</title>
<path fill="none" stroke="black" d="M151.374,-558.956C137.06,-546.577 117.419,-526.55 109,-504 103.404,-489.011 103.896,-483.164 109,-468 112.586,-457.348 119.2,-447.129 126.086,-438.503"/>
<polygon fill="black" stroke="black" points="128.862,-440.641 132.68,-430.758 123.532,-436.103 128.862,-440.641"/>
<text text-anchor="middle" x="116" y="-482.3" font-family="Times,serif" font-size="14.00">no</text>
</g>
<!-- F -->
<g id="node14" class="node"><title>F</title>
<ellipse fill="none" stroke="black" cx="249" cy="-486" rx="116.979" ry="18"/>
<text text-anchor="middle" x="249" y="-482.3" font-family="Times,serif" font-size="14.00">Erase cache[ID][oldest shape]</text>
</g>
<!-- D&#45;&gt;F -->
<g id="edge12" class="edge"><title>D&#45;&gt;F</title>
<path fill="none" stroke="black" d="M181.376,-557.964C193.39,-545.356 211.3,-526.562 225.67,-511.482"/>
<polygon fill="black" stroke="black" points="228.447,-513.641 232.812,-503.987 223.38,-508.812 228.447,-513.641"/>
<text text-anchor="middle" x="222.5" y="-525.8" font-family="Times,serif" font-size="14.00">yes</text>
</g>
<!-- F&#45;&gt;A -->
<g id="edge13" class="edge"><title>F&#45;&gt;A</title>
<path fill="none" stroke="black" d="M225.789,-468.354C212.507,-458.829 195.669,-446.753 181.239,-436.404"/>
<polygon fill="black" stroke="black" points="183.232,-433.526 173.066,-430.542 179.152,-439.214 183.232,-433.526"/>
</g>
</g>
</svg>
