<?xml version="1.0" encoding="UTF-8" standalone="no"?>
<!DOCTYPE svg PUBLIC "-//W3C//DTD SVG 1.1//EN"
 "http://www.w3.org/Graphics/SVG/1.1/DTD/svg11.dtd">
<!-- Generated by graphviz version 2.40.1 (0)
 -->
<!-- Title: G Pages: 1 -->
<svg width="426pt" height="479pt"
 viewBox="0.00 0.00 425.64 479.00" xmlns="http://www.w3.org/2000/svg" xmlns:xlink="http://www.w3.org/1999/xlink">
<g id="graph0" class="graph" transform="scale(1 1) rotate(0) translate(4 475)">
<title>G</title>
<polygon fill="#ffffff" stroke="transparent" points="-4,4 -4,-475 421.6419,-475 421.6419,4 -4,4"/>
<g id="clust1" class="cluster">
<title>cluster_0</title>
<polygon fill="none" stroke="#000000" points="191.6419,-64 191.6419,-355 409.6419,-355 409.6419,-64 191.6419,-64"/>
<text text-anchor="middle" x="300.6419" y="-339.8" font-family="Times,serif" font-size="14.00" fill="#000000">in&#45;placed</text>
</g>
<!-- e1 -->
<g id="node1" class="node">
<title>e1</title>
<ellipse fill="none" stroke="#000000" cx="368.6419" cy="-381" rx="29.4969" ry="18"/>
<text text-anchor="middle" x="368.6419" y="-377.3" font-family="Times,serif" font-size="14.00" fill="#000000">relu</text>
</g>
<!-- b -->
<g id="node5" class="node">
<title>b</title>
<ellipse fill="none" stroke="#000000" cx="368.6419" cy="-306" rx="27" ry="18"/>
<text text-anchor="middle" x="368.6419" y="-302.3" font-family="Times,serif" font-size="14.00" fill="#000000">b</text>
</g>
<!-- e1&#45;&gt;b -->
<g id="edge2" class="edge">
<title>e1&#45;&gt;b</title>
<path fill="none" stroke="#000000" d="M368.6419,-362.8446C368.6419,-354.3401 368.6419,-344.0076 368.6419,-334.4964"/>
<polygon fill="#000000" stroke="#000000" points="372.142,-334.2481 368.6419,-324.2482 365.142,-334.2482 372.142,-334.2481"/>
</g>
<!-- e2 -->
<g id="node2" class="node">
<title>e2</title>
<ellipse fill="none" stroke="#000000" cx="290.6419" cy="-234" rx="90.9839" ry="18"/>
<text text-anchor="middle" x="290.6419" y="-230.3" font-family="Times,serif" font-size="14.00" fill="#000000">elementwise_add</text>
</g>
<!-- e -->
<g id="node6" class="node">
<title>e</title>
<ellipse fill="none" stroke="#000000" cx="290.6419" cy="-162" rx="27" ry="18"/>
<text text-anchor="middle" x="290.6419" y="-158.3" font-family="Times,serif" font-size="14.00" fill="#000000">e</text>
</g>
<!-- e2&#45;&gt;e -->
<g id="edge5" class="edge">
<title>e2&#45;&gt;e</title>
<path fill="none" stroke="#000000" d="M290.6419,-215.8314C290.6419,-208.131 290.6419,-198.9743 290.6419,-190.4166"/>
<polygon fill="#000000" stroke="#000000" points="294.142,-190.4132 290.6419,-180.4133 287.142,-190.4133 294.142,-190.4132"/>
</g>
<!-- e3 -->
<g id="node3" class="node">
<title>e3</title>
<ellipse fill="none" stroke="#000000" cx="91.6419" cy="-90" rx="91.784" ry="18"/>
<text text-anchor="middle" x="91.6419" y="-86.3" font-family="Times,serif" font-size="14.00" fill="#000000">elementwise_mul</text>
</g>
<!-- g -->
<g id="node10" class="node">
<title>g</title>
<ellipse fill="none" stroke="#000000" cx="91.6419" cy="-18" rx="27" ry="18"/>
<text text-anchor="middle" x="91.6419" y="-14.3" font-family="Times,serif" font-size="14.00" fill="#000000">g</text>
</g>
<!-- e3&#45;&gt;g -->
<g id="edge10" class="edge">
<title>e3&#45;&gt;g</title>
<path fill="none" stroke="#000000" d="M91.6419,-71.8314C91.6419,-64.131 91.6419,-54.9743 91.6419,-46.4166"/>
<polygon fill="#000000" stroke="#000000" points="95.142,-46.4132 91.6419,-36.4133 88.142,-46.4133 95.142,-46.4132"/>
</g>
<!-- a -->
<g id="node4" class="node">
<title>a</title>
<ellipse fill="none" stroke="#000000" cx="368.6419" cy="-453" rx="27" ry="18"/>
<text text-anchor="middle" x="368.6419" y="-449.3" font-family="Times,serif" font-size="14.00" fill="#000000">a</text>
</g>
<!-- a&#45;&gt;e1 -->
<g id="edge1" class="edge">
<title>a&#45;&gt;e1</title>
<path fill="none" stroke="#000000" d="M368.6419,-434.8314C368.6419,-427.131 368.6419,-417.9743 368.6419,-409.4166"/>
<polygon fill="#000000" stroke="#000000" points="372.142,-409.4132 368.6419,-399.4133 365.142,-409.4133 372.142,-409.4132"/>
</g>
<!-- b&#45;&gt;e2 -->
<g id="edge3" class="edge">
<title>b&#45;&gt;e2</title>
<path fill="none" stroke="#000000" d="M352.4802,-291.0816C342.3042,-281.6883 328.9253,-269.3385 317.2154,-258.5294"/>
<polygon fill="#000000" stroke="#000000" points="319.5338,-255.9063 309.8118,-251.6953 314.7858,-261.05 319.5338,-255.9063"/>
</g>
<!-- var -->
<g id="node8" class="node">
<title>var</title>
<polygon fill="none" stroke="#000000" points="359.1419,-108 304.1419,-108 304.1419,-72 359.1419,-72 359.1419,-108"/>
<text text-anchor="middle" x="331.6419" y="-86.3" font-family="Times,serif" font-size="14.00" fill="#000000">var X</text>
</g>
<!-- b&#45;&gt;var -->
<g id="edge6" class="edge">
<title>b&#45;&gt;var</title>
<path fill="none" stroke="#000000" stroke-dasharray="5,2" d="M377.7737,-288.537C382.651,-278.216 388.151,-264.716 390.6419,-252 393.7176,-236.2984 394.1174,-231.618 390.6419,-216 382.5931,-179.8313 363.0051,-141.7658 348.5972,-117.0641"/>
<polygon fill="#000000" stroke="#000000" points="351.4899,-115.0812 343.3637,-108.283 345.4769,-118.665 351.4899,-115.0812"/>
</g>
<!-- e&#45;&gt;e3 -->
<g id="edge8" class="edge">
<title>e&#45;&gt;e3</title>
<path fill="none" stroke="#000000" d="M266.6378,-153.3151C236.7461,-142.5 184.8018,-123.7061 145.2479,-109.3952"/>
<polygon fill="#000000" stroke="#000000" points="146.3303,-106.0648 135.736,-105.9537 143.9486,-112.6472 146.3303,-106.0648"/>
</g>
<!-- e&#45;&gt;var -->
<g id="edge7" class="edge">
<title>e&#45;&gt;var</title>
<path fill="none" stroke="#000000" stroke-dasharray="5,2" d="M300.3583,-144.937C305.0825,-136.6409 310.8748,-126.469 316.1856,-117.1428"/>
<polygon fill="#000000" stroke="#000000" points="319.3715,-118.621 321.2785,-108.1992 313.2886,-115.1571 319.3715,-118.621"/>
</g>
<!-- d -->
<g id="node7" class="node">
<title>d</title>
<ellipse fill="none" stroke="#000000" cx="290.6419" cy="-306" rx="27" ry="18"/>
<text text-anchor="middle" x="290.6419" y="-302.3" font-family="Times,serif" font-size="14.00" fill="#000000">d</text>
</g>
<!-- d&#45;&gt;e2 -->
<g id="edge4" class="edge">
<title>d&#45;&gt;e2</title>
<path fill="none" stroke="#000000" d="M290.6419,-287.8314C290.6419,-280.131 290.6419,-270.9743 290.6419,-262.4166"/>
<polygon fill="#000000" stroke="#000000" points="294.142,-262.4132 290.6419,-252.4133 287.142,-262.4133 294.142,-262.4132"/>
</g>
<!-- f -->
<g id="node9" class="node">
<title>f</title>
<ellipse fill="none" stroke="#000000" cx="91.6419" cy="-162" rx="27" ry="18"/>
<text text-anchor="middle" x="91.6419" y="-158.3" font-family="Times,serif" font-size="14.00" fill="#000000">f</text>
</g>
<!-- f&#45;&gt;e3 -->
<g id="edge9" class="edge">
<title>f&#45;&gt;e3</title>
<path fill="none" stroke="#000000" d="M91.6419,-143.8314C91.6419,-136.131 91.6419,-126.9743 91.6419,-118.4166"/>
<polygon fill="#000000" stroke="#000000" points="95.142,-118.4132 91.6419,-108.4133 88.142,-118.4133 95.142,-118.4132"/>
</g>
</g>
</svg>
