<?xml version="1.0" encoding="UTF-8" standalone="no"?>
<!DOCTYPE svg PUBLIC "-//W3C//DTD SVG 1.1//EN"
 "http://www.w3.org/Graphics/SVG/1.1/DTD/svg11.dtd">
<!-- Generated by graphviz version 2.40.1 (0)
 -->
<!-- Title: G Pages: 1 -->
<svg width="287pt" height="371pt"
 viewBox="0.00 0.00 287.00 371.00" xmlns="http://www.w3.org/2000/svg" xmlns:xlink="http://www.w3.org/1999/xlink">
<g id="graph0" class="graph" transform="scale(1 1) rotate(0) translate(4 367)">
<title>G</title>
<polygon fill="#ffffff" stroke="transparent" points="-4,4 -4,-367 283,-367 283,4 -4,4"/>
<g id="clust1" class="cluster">
<title>cluster_0</title>
<polygon fill="none" stroke="#000000" points="40,-136 40,-355 238,-355 238,-136 40,-136"/>
<text text-anchor="middle" x="139" y="-339.8" font-family="Times,serif" font-size="14.00" fill="#000000">in&#45;placed</text>
</g>
<!-- op1 -->
<g id="node1" class="node">
<title>op1</title>
<ellipse fill="none" stroke="#000000" cx="139" cy="-234" rx="90.9839" ry="18"/>
<text text-anchor="middle" x="139" y="-230.3" font-family="Times,serif" font-size="14.00" fill="#000000">elementwise_add</text>
</g>
<!-- c -->
<g id="node4" class="node">
<title>c</title>
<ellipse fill="none" stroke="#000000" cx="139" cy="-162" rx="27" ry="18"/>
<text text-anchor="middle" x="139" y="-158.3" font-family="Times,serif" font-size="14.00" fill="#000000">a</text>
</g>
<!-- op1&#45;&gt;c -->
<g id="edge3" class="edge">
<title>op1&#45;&gt;c</title>
<path fill="none" stroke="#000000" d="M139,-215.8314C139,-208.131 139,-198.9743 139,-190.4166"/>
<polygon fill="#000000" stroke="#000000" points="142.5001,-190.4132 139,-180.4133 135.5001,-190.4133 142.5001,-190.4132"/>
</g>
<!-- op2 -->
<g id="node2" class="node">
<title>op2</title>
<ellipse fill="none" stroke="#000000" cx="94" cy="-90" rx="36.2938" ry="18"/>
<text text-anchor="middle" x="94" y="-86.3" font-family="Times,serif" font-size="14.00" fill="#000000">top_k</text>
</g>
<!-- d -->
<g id="node7" class="node">
<title>d</title>
<ellipse fill="none" stroke="#000000" cx="27" cy="-18" rx="27" ry="18"/>
<text text-anchor="middle" x="27" y="-14.3" font-family="Times,serif" font-size="14.00" fill="#000000">d</text>
</g>
<!-- op2&#45;&gt;d -->
<g id="edge6" class="edge">
<title>op2&#45;&gt;d</title>
<path fill="none" stroke="#000000" d="M78.4604,-73.3008C69.5886,-63.7669 58.3308,-51.6689 48.6084,-41.221"/>
<polygon fill="#000000" stroke="#000000" points="50.9126,-38.5593 41.538,-33.6229 45.7881,-43.328 50.9126,-38.5593"/>
</g>
<!-- e -->
<g id="node8" class="node">
<title>e</title>
<ellipse fill="none" stroke="#000000" cx="99" cy="-18" rx="27" ry="18"/>
<text text-anchor="middle" x="99" y="-14.3" font-family="Times,serif" font-size="14.00" fill="#000000">e</text>
</g>
<!-- op2&#45;&gt;e -->
<g id="edge7" class="edge">
<title>op2&#45;&gt;e</title>
<path fill="none" stroke="#000000" d="M95.2617,-71.8314C95.7965,-64.131 96.4323,-54.9743 97.0266,-46.4166"/>
<polygon fill="#000000" stroke="#000000" points="100.52,-46.6317 97.7213,-36.4133 93.5368,-46.1467 100.52,-46.6317"/>
</g>
<!-- op3 -->
<g id="node3" class="node">
<title>op3</title>
<ellipse fill="none" stroke="#000000" cx="185" cy="-90" rx="36.2938" ry="18"/>
<text text-anchor="middle" x="185" y="-86.3" font-family="Times,serif" font-size="14.00" fill="#000000">top_k</text>
</g>
<!-- g -->
<g id="node9" class="node">
<title>g</title>
<ellipse fill="none" stroke="#000000" cx="180" cy="-18" rx="27" ry="18"/>
<text text-anchor="middle" x="180" y="-14.3" font-family="Times,serif" font-size="14.00" fill="#000000">g</text>
</g>
<!-- op3&#45;&gt;g -->
<g id="edge8" class="edge">
<title>op3&#45;&gt;g</title>
<path fill="none" stroke="#000000" d="M183.7383,-71.8314C183.2035,-64.131 182.5677,-54.9743 181.9734,-46.4166"/>
<polygon fill="#000000" stroke="#000000" points="185.4632,-46.1467 181.2787,-36.4133 178.48,-46.6317 185.4632,-46.1467"/>
</g>
<!-- h -->
<g id="node10" class="node">
<title>h</title>
<ellipse fill="none" stroke="#000000" cx="252" cy="-18" rx="27" ry="18"/>
<text text-anchor="middle" x="252" y="-14.3" font-family="Times,serif" font-size="14.00" fill="#000000">h</text>
</g>
<!-- op3&#45;&gt;h -->
<g id="edge9" class="edge">
<title>op3&#45;&gt;h</title>
<path fill="none" stroke="#000000" d="M200.5396,-73.3008C209.4114,-63.7669 220.6692,-51.6689 230.3916,-41.221"/>
<polygon fill="#000000" stroke="#000000" points="233.2119,-43.328 237.462,-33.6229 228.0874,-38.5593 233.2119,-43.328"/>
</g>
<!-- c&#45;&gt;op2 -->
<g id="edge4" class="edge">
<title>c&#45;&gt;op2</title>
<path fill="none" stroke="#000000" d="M128.563,-145.3008C123.156,-136.6496 116.4295,-125.8873 110.3514,-116.1623"/>
<polygon fill="#000000" stroke="#000000" points="113.2763,-114.2382 105.0082,-107.6132 107.3403,-117.9482 113.2763,-114.2382"/>
</g>
<!-- c&#45;&gt;op3 -->
<g id="edge5" class="edge">
<title>c&#45;&gt;op3</title>
<path fill="none" stroke="#000000" d="M149.6689,-145.3008C155.1961,-136.6496 162.072,-125.8873 168.2852,-116.1623"/>
<polygon fill="#000000" stroke="#000000" points="171.3126,-117.9245 173.7471,-107.6132 165.4138,-114.1558 171.3126,-117.9245"/>
</g>
<!-- a -->
<g id="node5" class="node">
<title>a</title>
<ellipse fill="none" stroke="#000000" cx="175" cy="-306" rx="27" ry="18"/>
<text text-anchor="middle" x="175" y="-302.3" font-family="Times,serif" font-size="14.00" fill="#000000">a</text>
</g>
<!-- a&#45;&gt;op1 -->
<g id="edge1" class="edge">
<title>a&#45;&gt;op1</title>
<path fill="none" stroke="#000000" d="M166.2854,-288.5708C162.1772,-280.3544 157.1804,-270.3608 152.5911,-261.1821"/>
<polygon fill="#000000" stroke="#000000" points="155.613,-259.3996 148.0103,-252.0206 149.352,-262.5301 155.613,-259.3996"/>
</g>
<!-- b -->
<g id="node6" class="node">
<title>b</title>
<ellipse fill="none" stroke="#000000" cx="103" cy="-306" rx="27" ry="18"/>
<text text-anchor="middle" x="103" y="-302.3" font-family="Times,serif" font-size="14.00" fill="#000000">b</text>
</g>
<!-- b&#45;&gt;op1 -->
<g id="edge2" class="edge">
<title>b&#45;&gt;op1</title>
<path fill="none" stroke="#000000" d="M111.7146,-288.5708C115.8228,-280.3544 120.8196,-270.3608 125.4089,-261.1821"/>
<polygon fill="#000000" stroke="#000000" points="128.648,-262.5301 129.9897,-252.0206 122.387,-259.3996 128.648,-262.5301"/>
</g>
</g>
</svg>
