<?xml version="1.0" encoding="UTF-8" standalone="no"?>
<!DOCTYPE svg PUBLIC "-//W3C//DTD SVG 1.1//EN"
 "http://www.w3.org/Graphics/SVG/1.1/DTD/svg11.dtd">
<!-- Generated by graphviz version 2.40.1 (0)
 -->
<!-- Title: G Pages: 1 -->
<svg width="136pt" height="371pt"
 viewBox="0.00 0.00 136.00 371.00" xmlns="http://www.w3.org/2000/svg" xmlns:xlink="http://www.w3.org/1999/xlink">
<g id="graph0" class="graph" transform="scale(1 1) rotate(0) translate(4 367)">
<title>G</title>
<polygon fill="#ffffff" stroke="transparent" points="-4,4 -4,-367 132,-367 132,4 -4,4"/>
<g id="clust1" class="cluster">
<title>cluster_0</title>
<polygon fill="none" stroke="#000000" points="8,-136 8,-355 120,-355 120,-136 8,-136"/>
<text text-anchor="middle" x="64" y="-339.8" font-family="Times,serif" font-size="14.00" fill="#000000">in&#45;placed</text>
</g>
<!-- e1 -->
<g id="node1" class="node">
<title>e1</title>
<ellipse fill="none" stroke="#000000" cx="64" cy="-234" rx="48.1917" ry="18"/>
<text text-anchor="middle" x="64" y="-230.3" font-family="Times,serif" font-size="14.00" fill="#000000">softmax</text>
</g>
<!-- c -->
<g id="node3" class="node">
<title>c</title>
<ellipse fill="none" stroke="#000000" cx="64" cy="-162" rx="27" ry="18"/>
<text text-anchor="middle" x="64" y="-158.3" font-family="Times,serif" font-size="14.00" fill="#000000">b</text>
</g>
<!-- e1&#45;&gt;c -->
<g id="edge2" class="edge">
<title>e1&#45;&gt;c</title>
<path fill="none" stroke="#000000" d="M64,-215.8314C64,-208.131 64,-198.9743 64,-190.4166"/>
<polygon fill="#000000" stroke="#000000" points="67.5001,-190.4132 64,-180.4133 60.5001,-190.4133 67.5001,-190.4132"/>
</g>
<!-- e2 -->
<g id="node2" class="node">
<title>e2</title>
<ellipse fill="none" stroke="#000000" cx="64" cy="-90" rx="63.8893" ry="18"/>
<text text-anchor="middle" x="64" y="-86.3" font-family="Times,serif" font-size="14.00" fill="#000000">layer_norm</text>
</g>
<!-- e -->
<g id="node4" class="node">
<title>e</title>
<ellipse fill="none" stroke="#000000" cx="64" cy="-18" rx="27" ry="18"/>
<text text-anchor="middle" x="64" y="-14.3" font-family="Times,serif" font-size="14.00" fill="#000000">a</text>
</g>
<!-- e2&#45;&gt;e -->
<g id="edge4" class="edge">
<title>e2&#45;&gt;e</title>
<path fill="none" stroke="#000000" d="M64,-71.8314C64,-64.131 64,-54.9743 64,-46.4166"/>
<polygon fill="#000000" stroke="#000000" points="67.5001,-46.4132 64,-36.4133 60.5001,-46.4133 67.5001,-46.4132"/>
</g>
<!-- c&#45;&gt;e2 -->
<g id="edge3" class="edge">
<title>c&#45;&gt;e2</title>
<path fill="none" stroke="#000000" d="M64,-143.8314C64,-136.131 64,-126.9743 64,-118.4166"/>
<polygon fill="#000000" stroke="#000000" points="67.5001,-118.4132 64,-108.4133 60.5001,-118.4133 67.5001,-118.4132"/>
</g>
<!-- a -->
<g id="node5" class="node">
<title>a</title>
<ellipse fill="none" stroke="#000000" cx="64" cy="-306" rx="27" ry="18"/>
<text text-anchor="middle" x="64" y="-302.3" font-family="Times,serif" font-size="14.00" fill="#000000">a</text>
</g>
<!-- a&#45;&gt;e1 -->
<g id="edge1" class="edge">
<title>a&#45;&gt;e1</title>
<path fill="none" stroke="#000000" d="M64,-287.8314C64,-280.131 64,-270.9743 64,-262.4166"/>
<polygon fill="#000000" stroke="#000000" points="67.5001,-262.4132 64,-252.4133 60.5001,-262.4133 67.5001,-262.4132"/>
</g>
</g>
</svg>
