<?xml version="1.0" encoding="UTF-8" standalone="no"?>
<!DOCTYPE svg PUBLIC "-//W3C//DTD SVG 1.1//EN"
 "http://www.w3.org/Graphics/SVG/1.1/DTD/svg11.dtd">
<!-- Generated by graphviz version 2.40.1 (0)
 -->
<!-- Title: G Pages: 1 -->
<svg width="305pt" height="479pt"
 viewBox="0.00 0.00 304.64 479.00" xmlns="http://www.w3.org/2000/svg" xmlns:xlink="http://www.w3.org/1999/xlink">
<g id="graph0" class="graph" transform="scale(1 1) rotate(0) translate(4 475)">
<title>G</title>
<polygon fill="#ffffff" stroke="transparent" points="-4,4 -4,-475 300.6419,-475 300.6419,4 -4,4"/>
<g id="clust1" class="cluster">
<title>cluster_0</title>
<polygon fill="none" stroke="#000000" points="90.6419,-136 90.6419,-355 288.6419,-355 288.6419,-136 90.6419,-136"/>
<text text-anchor="middle" x="189.6419" y="-339.8" font-family="Times,serif" font-size="14.00" fill="#000000">in&#45;placed</text>
</g>
<!-- e1 -->
<g id="node1" class="node">
<title>e1</title>
<ellipse fill="none" stroke="#000000" cx="225.6419" cy="-381" rx="29.4969" ry="18"/>
<text text-anchor="middle" x="225.6419" y="-377.3" font-family="Times,serif" font-size="14.00" fill="#000000">relu</text>
</g>
<!-- b -->
<g id="node5" class="node">
<title>b</title>
<ellipse fill="none" stroke="#000000" cx="225.6419" cy="-306" rx="27" ry="18"/>
<text text-anchor="middle" x="225.6419" y="-302.3" font-family="Times,serif" font-size="14.00" fill="#000000">b</text>
</g>
<!-- e1&#45;&gt;b -->
<g id="edge2" class="edge">
<title>e1&#45;&gt;b</title>
<path fill="none" stroke="#000000" d="M225.6419,-362.8446C225.6419,-354.3401 225.6419,-344.0076 225.6419,-334.4964"/>
<polygon fill="#000000" stroke="#000000" points="229.142,-334.2481 225.6419,-324.2482 222.142,-334.2482 229.142,-334.2481"/>
</g>
<!-- e2 -->
<g id="node2" class="node">
<title>e2</title>
<ellipse fill="none" stroke="#000000" cx="189.6419" cy="-234" rx="90.9839" ry="18"/>
<text text-anchor="middle" x="189.6419" y="-230.3" font-family="Times,serif" font-size="14.00" fill="#000000">elementwise_add</text>
</g>
<!-- e -->
<g id="node6" class="node">
<title>e</title>
<ellipse fill="none" stroke="#000000" cx="158.6419" cy="-162" rx="27" ry="18"/>
<text text-anchor="middle" x="158.6419" y="-158.3" font-family="Times,serif" font-size="14.00" fill="#000000">b</text>
</g>
<!-- e2&#45;&gt;e -->
<g id="edge5" class="edge">
<title>e2&#45;&gt;e</title>
<path fill="none" stroke="#000000" d="M181.8193,-215.8314C178.2891,-207.6323 174.0482,-197.7824 170.1646,-188.7624"/>
<polygon fill="#000000" stroke="#000000" points="173.3105,-187.2184 166.1412,-179.4177 166.8811,-189.9867 173.3105,-187.2184"/>
</g>
<!-- e3 -->
<g id="node3" class="node">
<title>e3</title>
<ellipse fill="none" stroke="#000000" cx="91.6419" cy="-90" rx="91.784" ry="18"/>
<text text-anchor="middle" x="91.6419" y="-86.3" font-family="Times,serif" font-size="14.00" fill="#000000">elementwise_mul</text>
</g>
<!-- g -->
<g id="node9" class="node">
<title>g</title>
<ellipse fill="none" stroke="#000000" cx="91.6419" cy="-18" rx="27" ry="18"/>
<text text-anchor="middle" x="91.6419" y="-14.3" font-family="Times,serif" font-size="14.00" fill="#000000">g</text>
</g>
<!-- e3&#45;&gt;g -->
<g id="edge8" class="edge">
<title>e3&#45;&gt;g</title>
<path fill="none" stroke="#000000" d="M91.6419,-71.8314C91.6419,-64.131 91.6419,-54.9743 91.6419,-46.4166"/>
<polygon fill="#000000" stroke="#000000" points="95.142,-46.4132 91.6419,-36.4133 88.142,-46.4133 95.142,-46.4132"/>
</g>
<!-- a -->
<g id="node4" class="node">
<title>a</title>
<ellipse fill="none" stroke="#000000" cx="225.6419" cy="-453" rx="27" ry="18"/>
<text text-anchor="middle" x="225.6419" y="-449.3" font-family="Times,serif" font-size="14.00" fill="#000000">a</text>
</g>
<!-- a&#45;&gt;e1 -->
<g id="edge1" class="edge">
<title>a&#45;&gt;e1</title>
<path fill="none" stroke="#000000" d="M225.6419,-434.8314C225.6419,-427.131 225.6419,-417.9743 225.6419,-409.4166"/>
<polygon fill="#000000" stroke="#000000" points="229.142,-409.4132 225.6419,-399.4133 222.142,-409.4133 229.142,-409.4132"/>
</g>
<!-- b&#45;&gt;e2 -->
<g id="edge3" class="edge">
<title>b&#45;&gt;e2</title>
<path fill="none" stroke="#000000" d="M216.9273,-288.5708C212.8191,-280.3544 207.8223,-270.3608 203.2329,-261.1821"/>
<polygon fill="#000000" stroke="#000000" points="206.2549,-259.3996 198.6522,-252.0206 199.9939,-262.5301 206.2549,-259.3996"/>
</g>
<!-- e&#45;&gt;e3 -->
<g id="edge6" class="edge">
<title>e&#45;&gt;e3</title>
<path fill="none" stroke="#000000" d="M144.1039,-146.3771C135.7005,-137.3466 124.9236,-125.7654 115.3258,-115.4514"/>
<polygon fill="#000000" stroke="#000000" points="117.6495,-112.8107 108.2749,-107.8744 112.525,-117.5794 117.6495,-112.8107"/>
</g>
<!-- d -->
<g id="node7" class="node">
<title>d</title>
<ellipse fill="none" stroke="#000000" cx="153.6419" cy="-306" rx="27" ry="18"/>
<text text-anchor="middle" x="153.6419" y="-302.3" font-family="Times,serif" font-size="14.00" fill="#000000">d</text>
</g>
<!-- d&#45;&gt;e2 -->
<g id="edge4" class="edge">
<title>d&#45;&gt;e2</title>
<path fill="none" stroke="#000000" d="M162.3565,-288.5708C166.4647,-280.3544 171.4615,-270.3608 176.0508,-261.1821"/>
<polygon fill="#000000" stroke="#000000" points="179.2899,-262.5301 180.6316,-252.0206 173.0289,-259.3996 179.2899,-262.5301"/>
</g>
<!-- f -->
<g id="node8" class="node">
<title>f</title>
<ellipse fill="none" stroke="#000000" cx="55.6419" cy="-162" rx="27" ry="18"/>
<text text-anchor="middle" x="55.6419" y="-158.3" font-family="Times,serif" font-size="14.00" fill="#000000">f</text>
</g>
<!-- f&#45;&gt;e3 -->
<g id="edge7" class="edge">
<title>f&#45;&gt;e3</title>
<path fill="none" stroke="#000000" d="M64.3565,-144.5708C68.4647,-136.3544 73.4615,-126.3608 78.0508,-117.1821"/>
<polygon fill="#000000" stroke="#000000" points="81.2899,-118.5301 82.6316,-108.0206 75.0289,-115.3996 81.2899,-118.5301"/>
</g>
</g>
</svg>
