<?xml version="1.0" encoding="UTF-8" standalone="no"?>
<!DOCTYPE svg PUBLIC "-//W3C//DTD SVG 1.1//EN"
 "http://www.w3.org/Graphics/SVG/1.1/DTD/svg11.dtd">
<!-- Generated by graphviz version 2.40.1 (0)
 -->
<!-- Title: G Pages: 1 -->
<svg width="792pt" height="436pt"
 viewBox="0.00 0.00 792.00 435.74" xmlns="http://www.w3.org/2000/svg" xmlns:xlink="http://www.w3.org/1999/xlink">
<g id="graph0" class="graph" transform="scale(1 1) rotate(0) translate(4 431.7401)">
<title>G</title>
<polygon fill="#ffffff" stroke="transparent" points="-4,4 -4,-431.7401 788,-431.7401 788,4 -4,4"/>
<g id="clust1" class="cluster">
<title>cluster_before</title>
<polygon fill="none" stroke="#000000" stroke-dasharray="1,5" points="8,-8 8,-419.7401 398,-419.7401 398,-8 8,-8"/>
<text text-anchor="middle" x="203" y="-404.5401" font-family="Times,serif" font-size="14.00" fill="#000000">before</text>
</g>
<g id="clust2" class="cluster">
<title>cluster_0</title>
<polygon fill="none" stroke="#000000" points="104,-169.7401 104,-388.7401 302,-388.7401 302,-169.7401 104,-169.7401"/>
<text text-anchor="middle" x="203" y="-373.5401" font-family="Times,serif" font-size="14.00" fill="#000000">to be in&#45;placed</text>
</g>
<g id="clust3" class="cluster">
<title>cluster_after</title>
<polygon fill="none" stroke="#000000" stroke-dasharray="1,5" points="406,-8 406,-419.7401 776,-419.7401 776,-8 406,-8"/>
<text text-anchor="middle" x="591" y="-404.5401" font-family="Times,serif" font-size="14.00" fill="#000000">after</text>
</g>
<g id="clust4" class="cluster">
<title>cluster_0b</title>
<polygon fill="none" stroke="#000000" points="492,-169.7401 492,-388.7401 690,-388.7401 690,-169.7401 492,-169.7401"/>
<text text-anchor="middle" x="591" y="-373.5401" font-family="Times,serif" font-size="14.00" fill="#000000">applied in&#45;placed</text>
</g>
<!-- op1 -->
<g id="node1" class="node">
<title>op1</title>
<ellipse fill="none" stroke="#000000" cx="203" cy="-267.7401" rx="90.9839" ry="18"/>
<text text-anchor="middle" x="203" y="-264.0401" font-family="Times,serif" font-size="14.00" fill="#000000">elementwise_add</text>
</g>
<!-- c -->
<g id="node4" class="node">
<title>c</title>
<ellipse fill="none" stroke="#000000" cx="203" cy="-195.7401" rx="27" ry="18"/>
<text text-anchor="middle" x="203" y="-192.0401" font-family="Times,serif" font-size="14.00" fill="#000000">c</text>
</g>
<!-- op1&#45;&gt;c -->
<g id="edge3" class="edge">
<title>op1&#45;&gt;c</title>
<path fill="none" stroke="#000000" d="M203,-249.5715C203,-241.8711 203,-232.7145 203,-224.1567"/>
<polygon fill="#000000" stroke="#000000" points="206.5001,-224.1533 203,-214.1534 199.5001,-224.1534 206.5001,-224.1533"/>
</g>
<!-- op2 -->
<g id="node2" class="node">
<title>op2</title>
<ellipse fill="none" stroke="#000000" cx="105" cy="-114.8701" rx="89.191" ry="26.7407"/>
<text text-anchor="middle" x="105" y="-118.6701" font-family="Times,serif" font-size="14.00" fill="#000000">top_k</text>
<text text-anchor="middle" x="105" y="-103.6701" font-family="Times,serif" font-size="14.00" fill="#000000">inputs_vars{c}</text>
</g>
<!-- d -->
<g id="node7" class="node">
<title>d</title>
<ellipse fill="none" stroke="#000000" cx="84" cy="-34" rx="27" ry="18"/>
<text text-anchor="middle" x="84" y="-30.3" font-family="Times,serif" font-size="14.00" fill="#000000">d</text>
</g>
<!-- op2&#45;&gt;d -->
<g id="edge6" class="edge">
<title>op2&#45;&gt;d</title>
<path fill="none" stroke="#000000" d="M98.0073,-87.9415C95.8358,-79.579 93.4381,-70.3458 91.2495,-61.9176"/>
<polygon fill="#000000" stroke="#000000" points="94.6139,-60.9481 88.7128,-52.1488 87.8386,-62.7075 94.6139,-60.9481"/>
</g>
<!-- e -->
<g id="node8" class="node">
<title>e</title>
<ellipse fill="none" stroke="#000000" cx="156" cy="-34" rx="27" ry="18"/>
<text text-anchor="middle" x="156" y="-30.3" font-family="Times,serif" font-size="14.00" fill="#000000">e</text>
</g>
<!-- op2&#45;&gt;e -->
<g id="edge7" class="edge">
<title>op2&#45;&gt;e</title>
<path fill="none" stroke="#000000" d="M121.6993,-88.3902C127.5384,-79.1312 134.0793,-68.7595 139.8709,-59.5756"/>
<polygon fill="#000000" stroke="#000000" points="142.9853,-61.1985 145.3592,-50.873 137.0644,-57.4645 142.9853,-61.1985"/>
</g>
<!-- op3 -->
<g id="node3" class="node">
<title>op3</title>
<ellipse fill="none" stroke="#000000" cx="301" cy="-114.8701" rx="89.191" ry="26.7407"/>
<text text-anchor="middle" x="301" y="-118.6701" font-family="Times,serif" font-size="14.00" fill="#000000">top_k</text>
<text text-anchor="middle" x="301" y="-103.6701" font-family="Times,serif" font-size="14.00" fill="#000000">inputs_vars{c}</text>
</g>
<!-- g -->
<g id="node9" class="node">
<title>g</title>
<ellipse fill="none" stroke="#000000" cx="249" cy="-34" rx="27" ry="18"/>
<text text-anchor="middle" x="249" y="-30.3" font-family="Times,serif" font-size="14.00" fill="#000000">g</text>
</g>
<!-- op3&#45;&gt;g -->
<g id="edge8" class="edge">
<title>op3&#45;&gt;g</title>
<path fill="none" stroke="#000000" d="M283.9733,-88.3902C277.9576,-79.0347 271.2115,-68.5433 265.261,-59.289"/>
<polygon fill="#000000" stroke="#000000" points="268.2019,-57.3913 259.8495,-50.873 262.314,-61.1772 268.2019,-57.3913"/>
</g>
<!-- h -->
<g id="node10" class="node">
<title>h</title>
<ellipse fill="none" stroke="#000000" cx="321" cy="-34" rx="27" ry="18"/>
<text text-anchor="middle" x="321" y="-30.3" font-family="Times,serif" font-size="14.00" fill="#000000">h</text>
</g>
<!-- op3&#45;&gt;h -->
<g id="edge9" class="edge">
<title>op3&#45;&gt;h</title>
<path fill="none" stroke="#000000" d="M307.6597,-87.9415C309.7278,-79.579 312.0113,-70.3458 314.0957,-61.9176"/>
<polygon fill="#000000" stroke="#000000" points="317.5084,-62.6967 316.5116,-52.1488 310.7131,-61.0161 317.5084,-62.6967"/>
</g>
<!-- c&#45;&gt;op2 -->
<g id="edge4" class="edge">
<title>c&#45;&gt;op2</title>
<path fill="none" stroke="#000000" d="M185.9297,-181.6536C174.2695,-172.0316 158.3368,-158.8838 143.691,-146.798"/>
<polygon fill="#000000" stroke="#000000" points="145.6628,-143.8874 135.7221,-140.2221 141.2074,-149.2865 145.6628,-143.8874"/>
</g>
<!-- c&#45;&gt;op3 -->
<g id="edge5" class="edge">
<title>c&#45;&gt;op3</title>
<path fill="none" stroke="#000000" d="M220.0703,-181.6536C231.7305,-172.0316 247.6632,-158.8838 262.309,-146.798"/>
<polygon fill="#000000" stroke="#000000" points="264.7926,-149.2865 270.2779,-140.2221 260.3372,-143.8874 264.7926,-149.2865"/>
</g>
<!-- a -->
<g id="node5" class="node">
<title>a</title>
<ellipse fill="none" stroke="#000000" cx="239" cy="-339.7401" rx="27" ry="18"/>
<text text-anchor="middle" x="239" y="-336.0401" font-family="Times,serif" font-size="14.00" fill="#000000">a</text>
</g>
<!-- a&#45;&gt;op1 -->
<g id="edge1" class="edge">
<title>a&#45;&gt;op1</title>
<path fill="none" stroke="#000000" d="M230.2854,-322.3109C226.1772,-314.0945 221.1804,-304.1009 216.5911,-294.9222"/>
<polygon fill="#000000" stroke="#000000" points="219.613,-293.1397 212.0103,-285.7607 213.352,-296.2703 219.613,-293.1397"/>
</g>
<!-- b -->
<g id="node6" class="node">
<title>b</title>
<ellipse fill="none" stroke="#000000" cx="167" cy="-339.7401" rx="27" ry="18"/>
<text text-anchor="middle" x="167" y="-336.0401" font-family="Times,serif" font-size="14.00" fill="#000000">b</text>
</g>
<!-- b&#45;&gt;op1 -->
<g id="edge2" class="edge">
<title>b&#45;&gt;op1</title>
<path fill="none" stroke="#000000" d="M175.7146,-322.3109C179.8228,-314.0945 184.8196,-304.1009 189.4089,-294.9222"/>
<polygon fill="#000000" stroke="#000000" points="192.648,-296.2703 193.9897,-285.7607 186.387,-293.1397 192.648,-296.2703"/>
</g>
<!-- op1b -->
<g id="node11" class="node">
<title>op1b</title>
<ellipse fill="none" stroke="#000000" cx="591" cy="-267.7401" rx="90.9839" ry="18"/>
<text text-anchor="middle" x="591" y="-264.0401" font-family="Times,serif" font-size="14.00" fill="#000000">elementwise_add</text>
</g>
<!-- cb -->
<g id="node14" class="node">
<title>cb</title>
<ellipse fill="none" stroke="#000000" cx="591" cy="-195.7401" rx="27" ry="18"/>
<text text-anchor="middle" x="591" y="-192.0401" font-family="Times,serif" font-size="14.00" fill="#000000">a</text>
</g>
<!-- op1b&#45;&gt;cb -->
<g id="edge12" class="edge">
<title>op1b&#45;&gt;cb</title>
<path fill="none" stroke="#000000" d="M591,-249.5715C591,-241.8711 591,-232.7145 591,-224.1567"/>
<polygon fill="#000000" stroke="#000000" points="594.5001,-224.1533 591,-214.1534 587.5001,-224.1534 594.5001,-224.1533"/>
</g>
<!-- op2b -->
<g id="node12" class="node">
<title>op2b</title>
<ellipse fill="none" stroke="#000000" cx="498" cy="-114.8701" rx="84.2917" ry="26.7407"/>
<text text-anchor="middle" x="498" y="-118.6701" font-family="Times,serif" font-size="14.00" fill="#000000">top_k</text>
<text text-anchor="middle" x="498" y="-103.6701" font-family="Times,serif" font-size="14.00" fill="#000000">input_vars{a}</text>
</g>
<!-- db -->
<g id="node17" class="node">
<title>db</title>
<ellipse fill="none" stroke="#000000" cx="476" cy="-34" rx="27" ry="18"/>
<text text-anchor="middle" x="476" y="-30.3" font-family="Times,serif" font-size="14.00" fill="#000000">d</text>
</g>
<!-- op2b&#45;&gt;db -->
<g id="edge15" class="edge">
<title>op2b&#45;&gt;db</title>
<path fill="none" stroke="#000000" d="M490.6743,-87.9415C488.3994,-79.579 485.8876,-70.3458 483.5947,-61.9176"/>
<polygon fill="#000000" stroke="#000000" points="486.9396,-60.8794 480.9372,-52.1488 480.1851,-62.7169 486.9396,-60.8794"/>
</g>
<!-- eb -->
<g id="node18" class="node">
<title>eb</title>
<ellipse fill="none" stroke="#000000" cx="548" cy="-34" rx="27" ry="18"/>
<text text-anchor="middle" x="548" y="-30.3" font-family="Times,serif" font-size="14.00" fill="#000000">e</text>
</g>
<!-- op2b&#45;&gt;eb -->
<g id="edge16" class="edge">
<title>op2b&#45;&gt;eb</title>
<path fill="none" stroke="#000000" d="M514.3719,-88.3902C520.0965,-79.1312 526.5091,-68.7595 532.1872,-59.5756"/>
<polygon fill="#000000" stroke="#000000" points="535.2859,-61.2192 537.5678,-50.873 529.332,-57.538 535.2859,-61.2192"/>
</g>
<!-- op3b -->
<g id="node13" class="node">
<title>op3b</title>
<ellipse fill="none" stroke="#000000" cx="684" cy="-114.8701" rx="84.2917" ry="26.7407"/>
<text text-anchor="middle" x="684" y="-118.6701" font-family="Times,serif" font-size="14.00" fill="#000000">top_k</text>
<text text-anchor="middle" x="684" y="-103.6701" font-family="Times,serif" font-size="14.00" fill="#000000">input_vars{a}</text>
</g>
<!-- gb -->
<g id="node19" class="node">
<title>gb</title>
<ellipse fill="none" stroke="#000000" cx="633" cy="-34" rx="27" ry="18"/>
<text text-anchor="middle" x="633" y="-30.3" font-family="Times,serif" font-size="14.00" fill="#000000">g</text>
</g>
<!-- op3b&#45;&gt;gb -->
<g id="edge17" class="edge">
<title>op3b&#45;&gt;gb</title>
<path fill="none" stroke="#000000" d="M667.3007,-88.3902C661.4616,-79.1312 654.9207,-68.7595 649.1291,-59.5756"/>
<polygon fill="#000000" stroke="#000000" points="651.9356,-57.4645 643.6408,-50.873 646.0147,-61.1985 651.9356,-57.4645"/>
</g>
<!-- hb -->
<g id="node20" class="node">
<title>hb</title>
<ellipse fill="none" stroke="#000000" cx="705" cy="-34" rx="27" ry="18"/>
<text text-anchor="middle" x="705" y="-30.3" font-family="Times,serif" font-size="14.00" fill="#000000">h</text>
</g>
<!-- op3b&#45;&gt;hb -->
<g id="edge18" class="edge">
<title>op3b&#45;&gt;hb</title>
<path fill="none" stroke="#000000" d="M690.9927,-87.9415C693.1642,-79.579 695.5619,-70.3458 697.7505,-61.9176"/>
<polygon fill="#000000" stroke="#000000" points="701.1614,-62.7075 700.2872,-52.1488 694.3861,-60.9481 701.1614,-62.7075"/>
</g>
<!-- cb&#45;&gt;op2b -->
<g id="edge13" class="edge">
<title>cb&#45;&gt;op2b</title>
<path fill="none" stroke="#000000" d="M574.3735,-181.2822C563.4548,-171.7876 548.7254,-158.9793 535.1151,-147.1443"/>
<polygon fill="#000000" stroke="#000000" points="537.1109,-144.2416 527.2682,-140.3209 532.5176,-149.5238 537.1109,-144.2416"/>
</g>
<!-- cb&#45;&gt;op3b -->
<g id="edge14" class="edge">
<title>cb&#45;&gt;op3b</title>
<path fill="none" stroke="#000000" d="M607.6265,-181.2822C618.5452,-171.7876 633.2746,-158.9793 646.8849,-147.1443"/>
<polygon fill="#000000" stroke="#000000" points="649.4824,-149.5238 654.7318,-140.3209 644.8891,-144.2416 649.4824,-149.5238"/>
</g>
<!-- ab -->
<g id="node15" class="node">
<title>ab</title>
<ellipse fill="none" stroke="#000000" cx="627" cy="-339.7401" rx="27" ry="18"/>
<text text-anchor="middle" x="627" y="-336.0401" font-family="Times,serif" font-size="14.00" fill="#000000">a</text>
</g>
<!-- ab&#45;&gt;op1b -->
<g id="edge10" class="edge">
<title>ab&#45;&gt;op1b</title>
<path fill="none" stroke="#000000" d="M618.2854,-322.3109C614.1772,-314.0945 609.1804,-304.1009 604.5911,-294.9222"/>
<polygon fill="#000000" stroke="#000000" points="607.613,-293.1397 600.0103,-285.7607 601.352,-296.2703 607.613,-293.1397"/>
</g>
<!-- bb -->
<g id="node16" class="node">
<title>bb</title>
<ellipse fill="none" stroke="#000000" cx="555" cy="-339.7401" rx="27" ry="18"/>
<text text-anchor="middle" x="555" y="-336.0401" font-family="Times,serif" font-size="14.00" fill="#000000">b</text>
</g>
<!-- bb&#45;&gt;op1b -->
<g id="edge11" class="edge">
<title>bb&#45;&gt;op1b</title>
<path fill="none" stroke="#000000" d="M563.7146,-322.3109C567.8228,-314.0945 572.8196,-304.1009 577.4089,-294.9222"/>
<polygon fill="#000000" stroke="#000000" points="580.648,-296.2703 581.9897,-285.7607 574.387,-293.1397 580.648,-296.2703"/>
</g>
</g>
</svg>
