<?xml version="1.0" encoding="UTF-8" standalone="no"?>
<!DOCTYPE svg PUBLIC "-//W3C//DTD SVG 1.1//EN"
 "http://www.w3.org/Graphics/SVG/1.1/DTD/svg11.dtd">
<!-- Generated by graphviz version 2.40.1 (0)
 -->
<!-- Title: G Pages: 1 -->
<svg width="186pt" height="406pt"
 viewBox="0.00 0.00 186.19 406.48" xmlns="http://www.w3.org/2000/svg" xmlns:xlink="http://www.w3.org/1999/xlink">
<g id="graph0" class="graph" transform="scale(1 1) rotate(0) translate(4 402.4802)">
<title>G</title>
<polygon fill="#ffffff" stroke="transparent" points="-4,4 -4,-402.4802 182.1909,-402.4802 182.1909,4 -4,4"/>
<g id="clust1" class="cluster">
<title>cluster_0</title>
<polygon fill="none" stroke="#000000" points="8.0955,-153.7401 8.0955,-390.4802 170.0955,-390.4802 170.0955,-153.7401 8.0955,-153.7401"/>
<text text-anchor="middle" x="89.0955" y="-375.2802" font-family="Times,serif" font-size="14.00" fill="#000000">in&#45;placed</text>
</g>
<!-- e1 -->
<g id="node1" class="node">
<title>e1</title>
<ellipse fill="none" stroke="#000000" cx="89.0955" cy="-260.6102" rx="72.6644" ry="26.7407"/>
<text text-anchor="middle" x="89.0955" y="-264.4102" font-family="Times,serif" font-size="14.00" fill="#000000">softmax</text>
<text text-anchor="middle" x="89.0955" y="-249.4102" font-family="Times,serif" font-size="14.00" fill="#000000">&lt;oneDNN&gt;</text>
</g>
<!-- c -->
<g id="node3" class="node">
<title>c</title>
<ellipse fill="none" stroke="#000000" cx="89.0955" cy="-179.7401" rx="27" ry="18"/>
<text text-anchor="middle" x="89.0955" y="-176.0401" font-family="Times,serif" font-size="14.00" fill="#000000">b</text>
</g>
<!-- e1&#45;&gt;c -->
<g id="edge2" class="edge">
<title>e1&#45;&gt;c</title>
<path fill="none" stroke="#000000" d="M89.0955,-233.6816C89.0955,-225.4111 89.0955,-216.2888 89.0955,-207.9358"/>
<polygon fill="#000000" stroke="#000000" points="92.5956,-207.8889 89.0955,-197.8889 85.5956,-207.889 92.5956,-207.8889"/>
</g>
<!-- e2 -->
<g id="node2" class="node">
<title>e2</title>
<ellipse fill="none" stroke="#000000" cx="89.0955" cy="-98.8701" rx="89.191" ry="26.7407"/>
<text text-anchor="middle" x="89.0955" y="-102.6701" font-family="Times,serif" font-size="14.00" fill="#000000">layer_norm</text>
<text text-anchor="middle" x="89.0955" y="-87.6701" font-family="Times,serif" font-size="14.00" fill="#000000">&lt;Paddle CPU&gt;</text>
</g>
<!-- e -->
<g id="node4" class="node">
<title>e</title>
<ellipse fill="none" stroke="#000000" cx="89.0955" cy="-18" rx="27" ry="18"/>
<text text-anchor="middle" x="89.0955" y="-14.3" font-family="Times,serif" font-size="14.00" fill="#000000">a</text>
</g>
<!-- e2&#45;&gt;e -->
<g id="edge4" class="edge">
<title>e2&#45;&gt;e</title>
<path fill="none" stroke="#000000" d="M89.0955,-71.9415C89.0955,-63.6709 89.0955,-54.5487 89.0955,-46.1957"/>
<polygon fill="#000000" stroke="#000000" points="92.5956,-46.1488 89.0955,-36.1488 85.5956,-46.1489 92.5956,-46.1488"/>
</g>
<!-- c&#45;&gt;e2 -->
<g id="edge3" class="edge">
<title>c&#45;&gt;e2</title>
<path fill="none" stroke="#000000" d="M89.0955,-161.3894C89.0955,-153.8196 89.0955,-144.7601 89.0955,-135.9182"/>
<polygon fill="#000000" stroke="#000000" points="92.5956,-135.7406 89.0955,-125.7407 85.5956,-135.7407 92.5956,-135.7406"/>
</g>
<!-- a -->
<g id="node5" class="node">
<title>a</title>
<ellipse fill="none" stroke="#000000" cx="89.0955" cy="-341.4802" rx="27" ry="18"/>
<text text-anchor="middle" x="89.0955" y="-337.7802" font-family="Times,serif" font-size="14.00" fill="#000000">a</text>
</g>
<!-- a&#45;&gt;e1 -->
<g id="edge1" class="edge">
<title>a&#45;&gt;e1</title>
<path fill="none" stroke="#000000" d="M89.0955,-323.1296C89.0955,-315.5597 89.0955,-306.5002 89.0955,-297.6583"/>
<polygon fill="#000000" stroke="#000000" points="92.5956,-297.4808 89.0955,-287.4808 85.5956,-297.4808 92.5956,-297.4808"/>
</g>
</g>
</svg>
