<?xml version="1.0" encoding="UTF-8" standalone="no"?>
<!DOCTYPE svg PUBLIC "-//W3C//DTD SVG 1.1//EN"
 "http://www.w3.org/Graphics/SVG/1.1/DTD/svg11.dtd">
<!-- Generated by graphviz version 2.38.0 (20140413.2041)
 -->
<!-- Title: Q Pages: 1 -->
<svg width="1032pt" height="178pt"
 viewBox="0.00 0.00 1032.00 178.00" xmlns="http://www.w3.org/2000/svg" xmlns:xlink="http://www.w3.org/1999/xlink">
<g id="graph0" class="graph" transform="scale(1 1) rotate(0) translate(4 174)">
<title>Q</title>
<polygon fill="white" stroke="none" points="-4,4 -4,-174 1028,-174 1028,4 -4,4"/>
<g id="clust1" class="cluster"><title>cluster_bm</title>
<polygon fill="none" stroke="black" points="8,-8 8,-162 1016,-162 1016,-8 8,-8"/>
<text text-anchor="middle" x="512" y="-146.8" font-family="Times,serif" font-size="14.00">BlobMap</text>
</g>
<g id="clust2" class="cluster"><title>cluster_sm2</title>
<polygon fill="none" stroke="black" points="840,-16 840,-131 1008,-131 1008,-16 840,-16"/>
<text text-anchor="middle" x="924" y="-115.8" font-family="Times,serif" font-size="14.00">ShapeMap of Session ID=1</text>
</g>
<g id="clust3" class="cluster"><title>cluster_km</title>
<polygon fill="none" stroke="black" points="860,-24 860,-100 988,-100 988,-24 860,-24"/>
<text text-anchor="middle" x="924" y="-84.8" font-family="Times,serif" font-size="14.00">KeyMap of X shape</text>
</g>
<g id="clust4" class="cluster"><title>cluster_sm</title>
<polygon fill="none" stroke="black" points="16,-16 16,-131 832,-131 832,-16 16,-16"/>
<text text-anchor="middle" x="424" y="-115.8" font-family="Times,serif" font-size="14.00">ShapeMap of Session ID=0</text>
</g>
<g id="clust5" class="cluster"><title>cluster_km</title>
<polygon fill="none" stroke="black" points="428,-24 428,-100 824,-100 824,-24 428,-24"/>
<text text-anchor="middle" x="626" y="-84.8" font-family="Times,serif" font-size="14.00">KeyMap of X shape</text>
</g>
<g id="clust6" class="cluster"><title>cluster_km2</title>
<polygon fill="none" stroke="black" points="24,-24 24,-100 420,-100 420,-24 24,-24"/>
<text text-anchor="middle" x="222" y="-84.8" font-family="Times,serif" font-size="14.00">KeyMap of Y shape</text>
</g>
<!-- G -->
<g id="node1" class="node"><title>G</title>
<polygon fill="none" stroke="black" points="897,-32.5 897,-68.5 951,-68.5 951,-32.5 897,-32.5"/>
<text text-anchor="middle" x="924" y="-46.8" font-family="Times,serif" font-size="14.00">...</text>
</g>
<!-- C -->
<g id="node2" class="node"><title>C</title>
<polygon fill="none" stroke="black" points="762,-32.5 762,-68.5 816,-68.5 816,-32.5 762,-32.5"/>
<text text-anchor="middle" x="789" y="-46.8" font-family="Times,serif" font-size="14.00">...</text>
</g>
<!-- B -->
<g id="node3" class="node"><title>B</title>
<polygon fill="none" stroke="black" points="592,-32.5 592,-68.5 744,-68.5 744,-32.5 592,-32.5"/>
<text text-anchor="middle" x="668" y="-46.8" font-family="Times,serif" font-size="14.00">second object of ShapeX</text>
</g>
<!-- A -->
<g id="node4" class="node"><title>A</title>
<polygon fill="none" stroke="black" points="436.5,-32.5 436.5,-68.5 573.5,-68.5 573.5,-32.5 436.5,-32.5"/>
<text text-anchor="middle" x="505" y="-46.8" font-family="Times,serif" font-size="14.00">first object of ShapeX</text>
</g>
<!-- F -->
<g id="node5" class="node"><title>F</title>
<polygon fill="none" stroke="black" points="358,-32.5 358,-68.5 412,-68.5 412,-32.5 358,-32.5"/>
<text text-anchor="middle" x="385" y="-46.8" font-family="Times,serif" font-size="14.00">...</text>
</g>
<!-- E -->
<g id="node6" class="node"><title>E</title>
<polygon fill="none" stroke="black" points="188,-32.5 188,-68.5 340,-68.5 340,-32.5 188,-32.5"/>
<text text-anchor="middle" x="264" y="-46.8" font-family="Times,serif" font-size="14.00">second object of ShapeY</text>
</g>
<!-- D -->
<g id="node7" class="node"><title>D</title>
<polygon fill="none" stroke="black" points="32.5,-32.5 32.5,-68.5 169.5,-68.5 169.5,-32.5 32.5,-32.5"/>
<text text-anchor="middle" x="101" y="-46.8" font-family="Times,serif" font-size="14.00">first object of ShapeY</text>
</g>
</g>
</svg>
