<?xml version="1.0" encoding="UTF-8" standalone="no"?>
<!DOCTYPE svg PUBLIC "-//W3C//DTD SVG 1.1//EN"
 "http://www.w3.org/Graphics/SVG/1.1/DTD/svg11.dtd">
<!-- Generated by graphviz version 2.38.0 (20140413.2041)
 -->
<!-- Title: G Pages: 1 -->
<svg width="1598pt" height="410pt"
 viewBox="0.00 0.00 1597.92 409.63" xmlns="http://www.w3.org/2000/svg" xmlns:xlink="http://www.w3.org/1999/xlink">
<g id="graph0" class="graph" transform="scale(1 1) rotate(0) translate(4 405.626)">
<title>G</title>
<polygon fill="white" stroke="none" points="-4,4 -4,-405.626 1593.92,-405.626 1593.92,4 -4,4"/>
<!-- feed_op -->
<g id="node1" class="node"><title>feed_op</title>
<ellipse fill="none" stroke="black" cx="98.9949" cy="-302.631" rx="98.9899" ry="98.9899"/>
<text text-anchor="middle" x="98.9949" y="-314.431" font-family="Times,serif" font-size="14.00">Feed Op (Input signal)</text>
<text text-anchor="middle" x="98.9949" y="-283.431" font-family="Times,serif" font-size="14.00">Paddle</text>
</g>
<!-- input_feed -->
<g id="node9" class="node"><title>input_feed</title>
<polygon fill="none" stroke="black" points="362.99,-318.631 233.99,-318.631 233.99,-268.631 362.99,-268.631 362.99,-318.631"/>
<text text-anchor="start" x="245.49" y="-304.431" font-family="Times,serif" font-size="14.00">Tensor Input signal</text>
<text text-anchor="start" x="252.99" y="-290.431" font-family="Times,serif" font-size="14.00">layout=kNCHW</text>
<text text-anchor="start" x="241.99" y="-276.431" font-family="Times,serif" font-weight="bold" font-size="14.00">NHWC</text>
<text text-anchor="start" x="287.99" y="-276.431" font-family="Times,serif" font-size="14.00"> dim format</text>
</g>
<!-- feed_op&#45;&gt;input_feed -->
<g id="edge1" class="edge"><title>feed_op&#45;&gt;input_feed</title>
<path fill="none" stroke="black" d="M198.164,-298.157C206.767,-297.765 215.376,-297.373 223.729,-296.992"/>
<polygon fill="black" stroke="black" points="223.944,-300.486 233.775,-296.535 223.626,-293.493 223.944,-300.486"/>
</g>
<!-- feed_op2 -->
<g id="node2" class="node"><title>feed_op2</title>
<ellipse fill="none" stroke="black" cx="98.9949" cy="-92.631" rx="92.7622" ry="92.7622"/>
<text text-anchor="middle" x="98.9949" y="-104.431" font-family="Times,serif" font-size="14.00">Feed Op (Filter data)</text>
<text text-anchor="middle" x="98.9949" y="-73.431" font-family="Times,serif" font-size="14.00">Paddle</text>
</g>
<!-- filter_feed -->
<g id="node11" class="node"><title>filter_feed</title>
<polygon fill="none" stroke="black" points="360.99,-188.131 235.99,-188.131 235.99,-135.131 360.99,-135.131 360.99,-188.131"/>
<text text-anchor="middle" x="298.49" y="-172.931" font-family="Times,serif" font-size="14.00">Tensor filter data</text>
<text text-anchor="middle" x="298.49" y="-157.931" font-family="Times,serif" font-size="14.00">layout=kNCHW</text>
<text text-anchor="middle" x="298.49" y="-142.931" font-family="Times,serif" font-size="14.00">NCHW dim format</text>
</g>
<!-- feed_op2&#45;&gt;filter_feed -->
<g id="edge9" class="edge"><title>feed_op2&#45;&gt;filter_feed</title>
<path fill="none" stroke="black" d="M186.619,-122.895C199.833,-127.512 213.342,-132.232 226.178,-136.716"/>
<polygon fill="black" stroke="black" points="225.253,-140.1 235.847,-140.095 227.561,-133.492 225.253,-140.1"/>
</g>
<!-- fetch_op -->
<g id="node3" class="node"><title>fetch_op</title>
<ellipse fill="none" stroke="black" cx="1377.55" cy="-218.631" rx="47.2526" ry="47.2526"/>
<text text-anchor="middle" x="1377.55" y="-230.431" font-family="Times,serif" font-size="14.00">Fetch Op</text>
<text text-anchor="middle" x="1377.55" y="-199.431" font-family="Times,serif" font-size="14.00">Paddle</text>
</g>
<!-- tensor_fetch -->
<g id="node8" class="node"><title>tensor_fetch</title>
<polygon fill="none" stroke="black" points="1589.92,-243.631 1460.92,-243.631 1460.92,-193.631 1589.92,-193.631 1589.92,-243.631"/>
<text text-anchor="start" x="1480.92" y="-229.431" font-family="Times,serif" font-size="14.00">Tensor fetch_op</text>
<text text-anchor="start" x="1479.92" y="-215.431" font-family="Times,serif" font-size="14.00">layout=kNCHW</text>
<text text-anchor="start" x="1468.92" y="-201.431" font-family="Times,serif" font-weight="bold" font-size="14.00">NHWC</text>
<text text-anchor="start" x="1514.92" y="-201.431" font-family="Times,serif" font-size="14.00"> dim format</text>
</g>
<!-- fetch_op&#45;&gt;tensor_fetch -->
<g id="edge8" class="edge"><title>fetch_op&#45;&gt;tensor_fetch</title>
<path fill="none" stroke="black" d="M1425.1,-218.631C1433.25,-218.631 1441.91,-218.631 1450.59,-218.631"/>
<polygon fill="black" stroke="black" points="1450.75,-222.131 1460.75,-218.631 1450.75,-215.131 1450.75,-222.131"/>
</g>
<!-- conv_mkldnn -->
<g id="node4" class="node"><title>conv_mkldnn</title>
<ellipse fill="none" stroke="black" cx="654.035" cy="-218.631" rx="94.0904" ry="94.0904"/>
<text text-anchor="middle" x="654.035" y="-237.931" font-family="Times,serif" font-size="14.00">conv Op</text>
<text text-anchor="middle" x="654.035" y="-222.931" font-family="Times,serif" font-size="14.00">data_format=NHWC</text>
<text text-anchor="middle" x="654.035" y="-191.931" font-family="Times,serif" font-size="14.00">MKL&#45;DNN</text>
</g>
<!-- tensor_mkldnn -->
<g id="node6" class="node"><title>tensor_mkldnn</title>
<polygon fill="none" stroke="black" points="909.08,-245.131 784.08,-245.131 784.08,-192.131 909.08,-192.131 909.08,-245.131"/>
<text text-anchor="middle" x="846.58" y="-229.931" font-family="Times,serif" font-size="14.00">Tensor conv op</text>
<text text-anchor="middle" x="846.58" y="-214.931" font-family="Times,serif" font-size="14.00">layout=kMKLDNN</text>
<text text-anchor="middle" x="846.58" y="-199.931" font-family="Times,serif" font-size="14.00">NCHW dim format</text>
</g>
<!-- conv_mkldnn&#45;&gt;tensor_mkldnn -->
<g id="edge4" class="edge"><title>conv_mkldnn&#45;&gt;tensor_mkldnn</title>
<path fill="none" stroke="black" d="M748.354,-218.631C756.935,-218.631 765.537,-218.631 773.881,-218.631"/>
<polygon fill="black" stroke="black" points="773.913,-222.131 783.913,-218.631 773.913,-215.131 773.913,-222.131"/>
</g>
<!-- pool_mkldnn -->
<g id="node5" class="node"><title>pool_mkldnn</title>
<ellipse fill="none" stroke="black" cx="1039.13" cy="-218.631" rx="94.0904" ry="94.0904"/>
<text text-anchor="middle" x="1039.13" y="-237.931" font-family="Times,serif" font-size="14.00">pool Op</text>
<text text-anchor="middle" x="1039.13" y="-222.931" font-family="Times,serif" font-size="14.00">data_format=NHWC</text>
<text text-anchor="middle" x="1039.13" y="-191.931" font-family="Times,serif" font-size="14.00">MKL&#45;DNN</text>
</g>
<!-- tensor_mkldnn2 -->
<g id="node7" class="node"><title>tensor_mkldnn2</title>
<polygon fill="none" stroke="black" points="1294.17,-245.131 1169.17,-245.131 1169.17,-192.131 1294.17,-192.131 1294.17,-245.131"/>
<text text-anchor="middle" x="1231.67" y="-229.931" font-family="Times,serif" font-size="14.00">Tensor conv op</text>
<text text-anchor="middle" x="1231.67" y="-214.931" font-family="Times,serif" font-size="14.00">layout=kMKLDNN</text>
<text text-anchor="middle" x="1231.67" y="-199.931" font-family="Times,serif" font-size="14.00">NCHW dim format</text>
</g>
<!-- pool_mkldnn&#45;&gt;tensor_mkldnn2 -->
<g id="edge6" class="edge"><title>pool_mkldnn&#45;&gt;tensor_mkldnn2</title>
<path fill="none" stroke="black" d="M1133.44,-218.631C1142.03,-218.631 1150.63,-218.631 1158.97,-218.631"/>
<polygon fill="black" stroke="black" points="1159,-222.131 1169,-218.631 1159,-215.131 1159,-222.131"/>
</g>
<!-- tensor_mkldnn&#45;&gt;pool_mkldnn -->
<g id="edge5" class="edge"><title>tensor_mkldnn&#45;&gt;pool_mkldnn</title>
<path fill="none" stroke="black" d="M909.182,-218.631C917.388,-218.631 925.976,-218.631 934.656,-218.631"/>
<polygon fill="black" stroke="black" points="934.869,-222.131 944.869,-218.631 934.869,-215.131 934.869,-222.131"/>
</g>
<!-- tensor_mkldnn2&#45;&gt;fetch_op -->
<g id="edge7" class="edge"><title>tensor_mkldnn2&#45;&gt;fetch_op</title>
<path fill="none" stroke="black" d="M1294.52,-218.631C1302.97,-218.631 1311.61,-218.631 1319.95,-218.631"/>
<polygon fill="black" stroke="black" points="1319.96,-222.131 1329.96,-218.631 1319.96,-215.131 1319.96,-222.131"/>
</g>
<!-- input_feed2 -->
<g id="node10" class="node"><title>input_feed2</title>
<polygon fill="none" stroke="black" points="523.99,-285.131 398.99,-285.131 398.99,-232.131 523.99,-232.131 523.99,-285.131"/>
<text text-anchor="middle" x="461.49" y="-269.931" font-family="Times,serif" font-size="14.00">Tensor Input signal</text>
<text text-anchor="middle" x="461.49" y="-254.931" font-family="Times,serif" font-size="14.00">layout=kMKLDNN</text>
<text text-anchor="middle" x="461.49" y="-239.931" font-family="Times,serif" font-size="14.00">NCHW dim format</text>
</g>
<!-- input_feed&#45;&gt;input_feed2 -->
<g id="edge2" class="edge"><title>input_feed&#45;&gt;input_feed2</title>
<path fill="none" stroke="black" d="M363.121,-279.798C371.587,-277.958 380.313,-276.061 388.902,-274.194"/>
<polygon fill="black" stroke="black" points="389.869,-277.565 398.898,-272.021 388.382,-270.725 389.869,-277.565"/>
</g>
<!-- input_feed2&#45;&gt;conv_mkldnn -->
<g id="edge3" class="edge"><title>input_feed2&#45;&gt;conv_mkldnn</title>
<path fill="none" stroke="black" d="M524.091,-245.699C533.049,-243.819 542.462,-241.843 551.953,-239.851"/>
<polygon fill="black" stroke="black" points="552.787,-243.252 561.855,-237.772 551.349,-236.401 552.787,-243.252"/>
</g>
<!-- filter_feed2 -->
<g id="node12" class="node"><title>filter_feed2</title>
<polygon fill="none" stroke="black" points="523.99,-205.131 398.99,-205.131 398.99,-152.131 523.99,-152.131 523.99,-205.131"/>
<text text-anchor="middle" x="461.49" y="-189.931" font-family="Times,serif" font-size="14.00">Tensor filter data</text>
<text text-anchor="middle" x="461.49" y="-174.931" font-family="Times,serif" font-size="14.00">layout=kMKLDNN</text>
<text text-anchor="middle" x="461.49" y="-159.931" font-family="Times,serif" font-size="14.00">NCHW dim format</text>
</g>
<!-- filter_feed&#45;&gt;filter_feed2 -->
<g id="edge10" class="edge"><title>filter_feed&#45;&gt;filter_feed2</title>
<path fill="none" stroke="black" d="M361.276,-168.155C370.232,-169.101 379.515,-170.081 388.647,-171.045"/>
<polygon fill="black" stroke="black" points="388.557,-174.555 398.869,-172.124 389.292,-167.594 388.557,-174.555"/>
</g>
<!-- filter_feed2&#45;&gt;conv_mkldnn -->
<g id="edge11" class="edge"><title>filter_feed2&#45;&gt;conv_mkldnn</title>
<path fill="none" stroke="black" d="M524.091,-191.563C533.049,-193.443 542.462,-195.419 551.953,-197.411"/>
<polygon fill="black" stroke="black" points="551.349,-200.861 561.855,-199.49 552.787,-194.01 551.349,-200.861"/>
</g>
</g>
</svg>
